{
    "asset" : {
        "generator" : "Khronos glTF Blender I/O v1.5.17",
        "version" : "2.0"
    },
    "scene" : 0,
    "scenes" : [
        {
            "name" : "Scene",
            "nodes" : [
                0
            ]
        }
    ],
    "nodes" : [
        {
            "mesh" : 0,
            "name" : "Sphere"
        }
    ],
    "materials" : [
        {
            "doubleSided" : true,
            "name" : "SphereMat",
            "normalTexture" : {
                "index" : 0
            },
            "pbrMetallicRoughness" : {
                "baseColorTexture" : {
                    "index" : 1
                },
                "metallicRoughnessTexture" : {
                    "index" : 2
                }
            }
        }
    ],
    "meshes" : [
        {
            "name" : "Sphere.001",
            "primitives" : [
                {
                    "attributes" : {
                        "POSITION" : 0,
                        "NORMAL" : 1,
                        "TEXCOORD_0" : 2
                    },
                    "indices" : 3,
                    "material" : 0
                }
            ]
        }
    ],
    "textures" : [
        {
            "sampler" : 0,
            "source" : 0
        },
        {
            "sampler" : 0,
            "source" : 1
        },
        {
            "sampler" : 0,
            "source" : 2
        }
    ],
    "images" : [
        {
            "mimeType" : "image/jpeg",
            "name" : "Gravel022_2K_normalMap",
            "uri" : "textures/Gravel022_2K_normalMap.jpg"
        },
        {
            "mimeType" : "image/jpeg",
            "name" : "Gravel022_2K_baseColor",
            "uri" : "textures/Gravel022_2K_baseColor.jpg"
        },
        {
            "mimeType" : "image/jpeg",
            "name" : "Gravel022_2K_metallicRoughness",
            "uri" : "textures/Gravel022_2K_metallicRoughness.jpg"
        }
    ],
    "accessors" : [
        {
            "bufferView" : 0,
            "componentType" : 5126,
            "count" : 1681,
            "max" : [
                1.0000009536743164,
                1,
                1.0000016689300537
            ],
            "min" : [
                -1.0000003576278687,
                -1,
                -1
            ],
            "type" : "VEC3"
        },
        {
            "bufferView" : 1,
            "componentType" : 5126,
            "count" : 1681,
            "type" : "VEC3"
        },
        {
            "bufferView" : 2,
            "componentType" : 5126,
            "count" : 1681,
            "type" : "VEC2"
        },
        {
            "bufferView" : 3,
            "componentType" : 5123,
            "count" : 9408,
            "type" : "SCALAR"
        }
    ],
    "bufferViews" : [
        {
            "buffer" : 0,
            "byteLength" : 20172,
            "byteOffset" : 0
        },
        {
            "buffer" : 0,
            "byteLength" : 20172,
            "byteOffset" : 20172
        },
        {
            "buffer" : 0,
            "byteLength" : 13448,
            "byteOffset" : 40344
        },
        {
            "buffer" : 0,
            "byteLength" : 18816,
            "byteOffset" : 53792
        }
    ],
    "samplers" : [
        {
            "magFilter" : 9729,
            "minFilter" : 9987
        }
    ],
    "buffers" : [
        {
            "byteLength" : 72608,
            "uri" : "scene.bin"
        }
    ]
}
